<svg width="28" height="28" viewBox="0 0 28 28" fill="none" xmlns="http://www.w3.org/2000/svg">
<path d="M22.1667 8.16659H18.6667V6.99992C18.6667 5.76224 18.175 4.57526 17.2998 3.70009C16.4247 2.82492 15.2377 2.33325 14 2.33325C12.7623 2.33325 11.5754 2.82492 10.7002 3.70009C9.82502 4.57526 9.33335 5.76224 9.33335 6.99992V8.16659H5.83335C5.52393 8.16659 5.22719 8.2895 5.0084 8.50829C4.7896 8.72709 4.66669 9.02383 4.66669 9.33325V22.1666C4.66669 23.0948 5.03544 23.9851 5.69181 24.6415C6.34819 25.2978 7.23843 25.6666 8.16669 25.6666H19.8333C20.7616 25.6666 21.6518 25.2978 22.3082 24.6415C22.9646 23.9851 23.3333 23.0948 23.3333 22.1666V9.33325C23.3333 9.02383 23.2104 8.72709 22.9916 8.50829C22.7728 8.2895 22.4761 8.16659 22.1667 8.16659ZM11.6667 6.99992C11.6667 6.38108 11.9125 5.78759 12.3501 5.35C12.7877 4.91242 13.3812 4.66659 14 4.66659C14.6189 4.66659 15.2123 4.91242 15.6499 5.35C16.0875 5.78759 16.3333 6.38108 16.3333 6.99992V8.16659H11.6667V6.99992ZM21 22.1666C21 22.476 20.8771 22.7728 20.6583 22.9915C20.4395 23.2103 20.1428 23.3333 19.8333 23.3333H8.16669C7.85727 23.3333 7.56052 23.2103 7.34173 22.9915C7.12294 22.7728 7.00002 22.476 7.00002 22.1666V10.4999H9.33335V11.6666C9.33335 11.976 9.45627 12.2728 9.67506 12.4915C9.89385 12.7103 10.1906 12.8333 10.5 12.8333C10.8094 12.8333 11.1062 12.7103 11.325 12.4915C11.5438 12.2728 11.6667 11.976 11.6667 11.6666V10.4999H16.3333V11.6666C16.3333 11.976 16.4563 12.2728 16.6751 12.4915C16.8938 12.7103 17.1906 12.8333 17.5 12.8333C17.8094 12.8333 18.1062 12.7103 18.325 12.4915C18.5438 12.2728 18.6667 11.976 18.6667 11.6666V10.4999H21V22.1666Z" fill="#AE1332"/>
</svg>
