<!-- Generated by IcoMoon.io -->
<svg version="1.1" xmlns="http://www.w3.org/2000/svg" width="32" height="32" viewBox="0 0 32 32">
<title>check</title>
<path fill="#fff" d="M20.061 10.162c0.235-0.331 0.616-0.545 1.048-0.545 0.707 0 1.28 0.573 1.28 1.28 0 0.261-0.078 0.504-0.213 0.707l0.003-0.005-6.942 10.24c-0.233 0.341-0.621 0.561-1.059 0.561s-0.826-0.221-1.056-0.557l-0.003-0.004-3.298-4.864c-0.145-0.205-0.232-0.46-0.232-0.735 0-0.707 0.573-1.28 1.28-1.28 0.446 0 0.838 0.228 1.067 0.573l0.003 0.005 2.238 3.301 5.883-8.677z"></path>
<path fill="none" stroke="#fff" stroke-linejoin="miter" stroke-linecap="butt" stroke-miterlimit="4" stroke-width="2.4" d="M6.4 1.2h19.2c2.872 0 5.2 2.328 5.2 5.2v19.2c0 2.872-2.328 5.2-5.2 5.2h-19.2c-2.872 0-5.2-2.328-5.2-5.2v-19.2c0-2.872 2.328-5.2 5.2-5.2z"></path>
</svg>
