<svg width="28" height="28" viewBox="0 0 28 28" fill="none" xmlns="http://www.w3.org/2000/svg">
<path d="M22.1667 8.16659H18.6667V6.99992C18.6667 5.76224 18.1751 4.57526 17.2999 3.70009C16.4247 2.82492 15.2378 2.33325 14.0001 2.33325C12.7624 2.33325 11.5754 2.82492 10.7002 3.70009C9.82508 4.57526 9.33341 5.76224 9.33341 6.99992V8.16659H5.83341C5.52399 8.16659 5.22725 8.2895 5.00846 8.50829C4.78966 8.72709 4.66675 9.02383 4.66675 9.33325V22.1666C4.66675 23.0948 5.0355 23.9851 5.69187 24.6415C6.34825 25.2978 7.23849 25.6666 8.16675 25.6666H19.8334C20.7617 25.6666 21.6519 25.2978 22.3083 24.6415C22.9647 23.9851 23.3334 23.0948 23.3334 22.1666V9.33325C23.3334 9.02383 23.2105 8.72709 22.9917 8.50829C22.7729 8.2895 22.4762 8.16659 22.1667 8.16659ZM11.6667 6.99992C11.6667 6.38108 11.9126 5.78759 12.3502 5.35C12.7877 4.91242 13.3812 4.66659 14.0001 4.66659C14.6189 4.66659 15.2124 4.91242 15.65 5.35C16.0876 5.78759 16.3334 6.38108 16.3334 6.99992V8.16659H11.6667V6.99992ZM21.0001 22.1666C21.0001 22.476 20.8772 22.7728 20.6584 22.9915C20.4396 23.2103 20.1428 23.3333 19.8334 23.3333H8.16675C7.85733 23.3333 7.56058 23.2103 7.34179 22.9915C7.123 22.7728 7.00008 22.476 7.00008 22.1666V10.4999H9.33341V11.6666C9.33341 11.976 9.45633 12.2728 9.67512 12.4915C9.89391 12.7103 10.1907 12.8333 10.5001 12.8333C10.8095 12.8333 11.1062 12.7103 11.325 12.4915C11.5438 12.2728 11.6667 11.976 11.6667 11.6666V10.4999H16.3334V11.6666C16.3334 11.976 16.4563 12.2728 16.6751 12.4915C16.8939 12.7103 17.1907 12.8333 17.5001 12.8333C17.8095 12.8333 18.1062 12.7103 18.325 12.4915C18.5438 12.2728 18.6667 11.976 18.6667 11.6666V10.4999H21.0001V22.1666Z" fill="white"/>
</svg>
